<?xml version="1.0" standalone="no"?><!DOCTYPE svg PUBLIC "-//W3C//DTD SVG 1.1//EN" "http://www.w3.org/Graphics/SVG/1.1/DTD/svg11.dtd"><svg t="1507296286982" class="icon" style="" viewBox="0 0 1537 1024" version="1.1" xmlns="http://www.w3.org/2000/svg" p-id="33692" xmlns:xlink="http://www.w3.org/1999/xlink" width="22.5146484375" height="15"><defs><style type="text/css"></style></defs><path d="M0 0 170.624969 0 170.624969 170.624969 0 170.624969 0 0Z" p-id="33693" fill="#bfbfbf"></path><path d="M426.562424 0 1536.125092 0 1536.125092 170.624969 426.562424 170.624969 426.562424 0Z" p-id="33694" fill="#bfbfbf"></path><path d="M0 426.812607 170.624969 426.812607 170.624969 597.437576 0 597.437576 0 426.812607Z" p-id="33695" fill="#bfbfbf"></path><path d="M426.562424 426.812607 1536.125092 426.812607 1536.125092 597.437576 426.562424 597.437576 426.562424 426.812607Z" p-id="33696" fill="#bfbfbf"></path><path d="M0 853.375031 170.624969 853.375031 170.624969 1024 0 1024 0 853.375031Z" p-id="33697" fill="#bfbfbf"></path><path d="M426.562424 853.375031 1536.125092 853.375031 1536.125092 1024 426.562424 1024 426.562424 853.375031Z" p-id="33698" fill="#bfbfbf"></path></svg>