<?xml version="1.0" standalone="no"?><!DOCTYPE svg PUBLIC "-//W3C//DTD SVG 1.1//EN" "http://www.w3.org/Graphics/SVG/1.1/DTD/svg11.dtd"><svg t="1513251110762" class="icon" style="" viewBox="0 0 1024 1024" version="1.1" xmlns="http://www.w3.org/2000/svg" p-id="3550" xmlns:xlink="http://www.w3.org/1999/xlink" width="16" height="16"><defs><style type="text/css"></style></defs><path d="M1009.515387 440.151551c-26.900479 48.000009-26.900479 96.000018 0 144.000026 26.900479 48.056881 16.66351 86.104281-30.654034 114.312818-47.2038 28.094792-71.260677 69.611387-71.943142 124.66353-0.739337 54.995271-28.663512 82.862575-83.715655 83.601911-54.938399 0.739337-96.511866 24.739341-124.720402 72.000013-28.094792 47.317544-66.142192 57.497641-114.199074 30.710907-48.000009-26.957351-96.000018-26.957351-144.000026 0-48.056881 26.786735-86.104281 16.606638-114.312818-30.710907-28.094792-47.2038-69.611387-71.260677-124.66353-71.943141-54.995271-0.796209-82.862575-28.663512-83.601911-83.715655-0.739337-54.938399-24.739341-96.511866-72.000013-124.720402-47.317544-28.094792-57.497641-66.142192-30.710906-114.199074 26.957351-48.000009 26.957351-96.000018 0-144.000026-26.786735-48.056881-16.606638-86.104281 30.710906-114.312818C92.965454 297.743941 116.965458 256.227346 117.591051 201.175203c0.796209-54.995271 28.663512-82.919447 83.715655-83.601911C256.358849 116.890827 297.875444 92.833951 326.08398 45.573279 354.178772-1.744266 392.226173-11.924362 440.283054 14.862372c48.000009 26.957351 96.000018 26.957351 144.000026 0 48.056881-26.786735 86.104281-16.606638 114.312818 30.710907 28.094792 47.2038 69.668259 71.260677 124.66353 72.000013 54.995271 0.682465 82.919447 28.60664 83.601911 83.658783 0.739337 54.938399 24.739341 96.511866 72.000014 124.720402 47.374416 28.094792 57.554513 66.142192 30.654034 114.199074zM371.809107 507.260568a42.654036 42.654036 0 0 0-60.284371 60.341243l117.838884 117.895757a42.654036 42.654036 0 0 0 60.284372 0L713.041398 462.104161a42.654036 42.654036 0 0 0-60.284371-60.284371l-193.251221 193.194349L371.809107 507.31744z" fill="#4D97F4" p-id="3551"></path></svg>