<?xml version="1.0" standalone="no"?><!DOCTYPE svg PUBLIC "-//W3C//DTD SVG 1.1//EN" "http://www.w3.org/Graphics/SVG/1.1/DTD/svg11.dtd"><svg t="1527782299934" class="icon" style="" viewBox="0 0 1280 1024" version="1.1" xmlns="http://www.w3.org/2000/svg" p-id="1712" xmlns:xlink="http://www.w3.org/1999/xlink" width="20" height="16"><defs><style type="text/css"></style></defs><path d="M1259.402299 529.655172 19.616858 529.655172C7.846743 529.655172 0 521.808429 0 510.038314s7.846743-19.616858 19.616858-19.616858l1239.785441 0c11.770115 0 19.616858 7.846743 19.616858 19.616858S1271.172414 529.655172 1259.402299 529.655172z" p-id="1713"></path><path d="M510.038314 1024c-3.923372 0-11.770115 0-15.693487-3.923372L3.923372 525.731801C3.923372 521.808429 0 517.885057 0 510.038314s3.923372-11.770115 3.923372-15.693487L498.268199 3.923372c7.846743-7.846743 19.616858-7.846743 27.463602 0s7.846743 19.616858 0 27.463602L47.08046 510.038314l478.651341 478.651341c7.846743 7.846743 7.846743 19.616858 0 27.463602C521.808429 1020.076628 517.885057 1024 510.038314 1024z" p-id="1714"></path></svg>