<?xml version="1.0" standalone="no"?><!DOCTYPE svg PUBLIC "-//W3C//DTD SVG 1.1//EN" "http://www.w3.org/Graphics/SVG/1.1/DTD/svg11.dtd"><svg t="1506930556207" class="icon" style="" viewBox="0 0 1024 1024" version="1.1" xmlns="http://www.w3.org/2000/svg" p-id="7829" xmlns:xlink="http://www.w3.org/1999/xlink" width="16" height="16"><defs><style type="text/css"></style></defs><path d="M543.1 188.7c43.2-45.7 99.4-73.4 169.1-73.4 148.1 0 247.8 125.8 247.8 282.3 0 35.1-9.7 71.8-27.9 110-35.6 74.2-102.6 152.1-192.1 231.2-47.2 41.7-97.7 81.1-148.1 117.1-17.7 12.6-34.1 23.8-48.8 33.6-8.9 5.9-15.3 10-18.8 12.2l-11 6.9-11-6.9c-3.5-2.2-9.9-6.3-18.9-12.3-14.8-9.9-31.3-21.2-49.1-33.9-50.8-36.2-101.5-75.8-149-117.7-86.2-76.1-151.8-150.8-188.7-222C75.3 474.6 64 435.1 64 397.6c0-156.4 99-282.3 250.3-282.3 66.4 0 121.7 27.6 166 73.2 12.2 12.5 22.8 25.7 32 39.1 8.1-12.3 18.3-25.6 30.8-38.9z m-23 666.2c14.4-9.5 30.4-20.5 47.7-32.8 49.4-35.2 98.7-73.7 144.7-114.4 85.7-75.8 149.5-149.8 182.1-218 15.8-32.9 23.9-63.7 23.9-92 0-135.4-83.5-240.8-206.2-240.8-57.5 0-103.1 22.5-138.9 60.4a233.8 233.8 0 0 0-31.5 42.2c-4.9 8.5-8 14.9-9.3 18.2l-18 45-20.2-44.1c-1.5-3.4-5-9.9-10.4-18.5-9.1-14.5-20.3-29-33.4-42.6-37-38.1-82.1-60.6-136.2-60.6-125.9 0-208.8 105.4-208.8 240.8 0 30.2 9.5 63.4 28 99.1 34 65.7 96.5 137 179.2 209.9 46.3 40.8 95.9 79.6 145.6 115 17.4 12.4 33.5 23.5 48 33.1 2.5 1.7 4.8 3.2 6.9 4.6 2-1.3 4.3-2.8 6.8-4.5z" p-id="7830" fill="#8a8a8a"></path></svg>