<?xml version="1.0" standalone="no"?><!DOCTYPE svg PUBLIC "-//W3C//DTD SVG 1.1//EN" "http://www.w3.org/Graphics/SVG/1.1/DTD/svg11.dtd"><svg t="1506932090881" class="icon" style="" viewBox="0 0 1024 1024" version="1.1" xmlns="http://www.w3.org/2000/svg" p-id="8835" xmlns:xlink="http://www.w3.org/1999/xlink" width="16" height="16"><defs><style type="text/css"></style></defs><path d="M941.248 384.896c0-143.104-112.32-259.584-250.176-259.584A244.8 244.8 0 0 0 512 204.8a245.12 245.12 0 0 0-179.072-79.488c-137.92 0-250.176 116.416-250.176 259.584 0 4.8 0.448 9.088 0.832 12.608l-0.128 3.52c0 25.344 6.144 53.184 18.24 82.752a34.112 34.112 0 0 0 1.216 3.072c76.224 182.848 369.664 393.216 382.144 402.88a42.88 42.88 0 0 0 52.736-0.256c10.688-8.32 260.992-188.48 360.32-358.912 3.776-5.76 6.592-11.328 9.088-16.128 0.768-1.536 1.472-3.072 2.304-4.544l0.32-0.704a276.224 276.224 0 0 0 15.552-34.56c10.304-27.008 15.36-51.072 15.36-73.536a46.72 46.72 0 0 0-0.192-4.544c0.32-2.944 0.704-6.912 0.704-11.648z" fill="#FF2222" p-id="8836"></path></svg>