<?xml version="1.0" standalone="no"?><!DOCTYPE svg PUBLIC "-//W3C//DTD SVG 1.1//EN" "http://www.w3.org/Graphics/SVG/1.1/DTD/svg11.dtd"><svg t="1507295978512" class="icon" style="" viewBox="0 0 1024 1024" version="1.1" xmlns="http://www.w3.org/2000/svg" p-id="25170" xmlns:xlink="http://www.w3.org/1999/xlink" width="20" height="20"><defs><style type="text/css"></style></defs><path d="M512 958.8c-60.3 0-118.8-11.8-173.9-35.1-53.2-22.5-101-54.7-142-95.7s-73.2-88.8-95.7-142C77 630.8 65.2 572.3 65.2 512S77 393.2 100.3 338.1c22.5-53.2 54.7-101 95.7-142s88.8-73.2 142-95.7C393.2 77 451.7 65.2 512 65.2S630.8 77 685.9 100.3c53.2 22.5 101 54.7 142 95.7s73.2 88.8 95.7 142c23.3 55.1 35.1 113.6 35.1 173.9s-11.7 118.9-35 174c-22.5 53.2-54.7 101-95.7 142s-88.8 73.2-142 95.7c-55.2 23.4-113.7 35.2-174 35.2z m0-832c-212.4 0-385.2 172.8-385.2 385.2S299.6 897.2 512 897.2 897.2 724.4 897.2 512 724.4 126.8 512 126.8z" p-id="25171" fill="#bfbfbf"></path><path d="M276.3 272.8v478.4h471.3V272.8H276.3z m429.3 372.4H318.4V315.5h387.2v329.7z" p-id="25172" fill="#bfbfbf"></path><path d="M661.8 611.4s0-46.2-37.4-63c-23.7-10.6-14.5-2.5-43.6-13.4-13.4-5-22.1-8.5-27.6-10.7-12.8 5.7-26.7 14.4-41.2 14.4-14.4 0-28.1-8.6-40.8-14.2-5.4 2.3-14.2 5.9-28 11-29 10.9-19.9 2.3-43.6 12.9-37.4 16.8-37.4 63-37.4 63 0 7 6.3 12.7 14 12.7h271.5c7.8 0.1 14.1-5.6 14.1-12.7 0 0.1 0 0.1 0 0zM590.7 418.8c-1.2-1-2.7-1.4-4.8-1 1.7-11 3.2-21.2 3.6-29 0.2-3.5 0.2-6.5-0.1-8.9-1.2-10.2-5.1-20.5-12.5-29.6-12.1-14.7-33.4-25.8-67.6-27.1-13.6 0.6-25.7 3.3-36.3 7.6-2.2 0.9-10.9 0.3-19 0.8-6.9 0.4-13.4 1.5-15.1 4.8-1.4 2.9 1.5 10.2 1.7 14.9-0.8 1.5-1.5 3.1-2.2 4.6-11.4 9.5-8.2 11.6-9.7 24-0.2 2.2-0.3 4.9-0.1 8 0.3 7.9 1.8 18.5 3.6 29.9-2.1-0.4-3.7 0.1-4.9 1-5.7 4.6-2 22-1.6 28.3 0.6 7.9 3.9 20.3 13.9 17.9 0 0.1 0.1 0.1 0.1 0.2 11.3 18 40.1 48.7 69.2 48.7 29 0 57.8-30.6 69-48.4l0.3-0.6c9.9 2.3 13.3-10 13.8-17.9 0.7-6.2 4.4-23.6-1.3-28.2z" p-id="25173" fill="#bfbfbf"></path></svg>