<?xml version="1.0" standalone="no"?><!DOCTYPE svg PUBLIC "-//W3C//DTD SVG 1.1//EN" "http://www.w3.org/Graphics/SVG/1.1/DTD/svg11.dtd"><svg t="1507036269875" class="icon" style="" viewBox="0 0 1024 1024" version="1.1" xmlns="http://www.w3.org/2000/svg" p-id="3598" id="mx_n_1507036269882" xmlns:xlink="http://www.w3.org/1999/xlink" width="16" height="16"><defs><style type="text/css"></style></defs><path d="M409.6 767.603101c87.317829 0 166.697674-30.95814 228.613953-83.348837l277.829457 277.829457c6.350388 6.350388 14.288372 9.525581 23.020155 9.525581s16.669767-3.175194 23.020155-9.525581c12.700775-12.700775 12.700775-33.339535 0-46.04031l-277.829457-277.829457c51.596899-61.916279 83.348837-142.089922 83.348837-228.613953 0-197.655814-160.347287-358.003101-358.003101-358.003101C212.737984 51.596899 51.596899 212.737984 51.596899 409.6 51.596899 607.255814 212.737984 767.603101 409.6 767.603101zM409.6 116.688372c161.934884 0 292.911628 131.770543 292.911628 292.911628C702.511628 571.534884 571.534884 702.511628 409.6 702.511628c-161.934884 0-292.911628-131.770543-292.911628-292.911628C116.688372 248.458915 248.458915 116.688372 409.6 116.688372z" p-id="3599"></path></svg>