<?xml version="1.0" standalone="no"?><!DOCTYPE svg PUBLIC "-//W3C//DTD SVG 1.1//EN" "http://www.w3.org/Graphics/SVG/1.1/DTD/svg11.dtd"><svg t="1506933187424" class="icon" style="" viewBox="0 0 1024 1024" version="1.1" xmlns="http://www.w3.org/2000/svg" p-id="11872" xmlns:xlink="http://www.w3.org/1999/xlink" width="20" height="20"><defs><style type="text/css"></style></defs><path d="M677.888 1002.752l339.346286-961.389714c0.292571-0.804571 0.365714-1.609143 0.585143-2.413715l0.036571-0.182857a28.16 28.16 0 0 0 0.841143-5.229714v-0.365714a28.379429 28.379429 0 0 0-0.182857-5.12l-0.109715-0.731429a28.745143 28.745143 0 0 0-1.170285-4.681143l-0.146286-0.548571-0.292571-0.621714a28.635429 28.635429 0 0 0-16.457143-16.457143L999.716571 4.754286 999.131429 4.608a28.598857 28.598857 0 0 0-4.681143-1.133714c-0.256-0.036571-0.475429-0.109714-0.731429-0.109715a28.672 28.672 0 0 0-5.12-0.219428h-0.365714a28.379429 28.379429 0 0 0-5.229714 0.841143l-0.182858 0.073143c-0.804571 0.182857-1.609143 0.292571-2.413714 0.585142L19.712 345.782857a28.708571 28.708571 0 0 0-3.693714 52.406857l-0.073143 0.146286 390.473143 195.913143 23.661714 23.625143 195.364571 388.754285 0.073143-0.036571a28.708571 28.708571 0 0 0 52.370286-3.84zM437.028571 545.353143l-334.701714-167.972572 778.130286-276.260571-443.428572 444.233143zM920.868571 141.897143l-274.651428 778.130286-168.082286-334.555429L920.832 141.897143z" p-id="11873" fill="#707070"></path></svg>