<?xml version="1.0" standalone="no"?><!DOCTYPE svg PUBLIC "-//W3C//DTD SVG 1.1//EN" "http://www.w3.org/Graphics/SVG/1.1/DTD/svg11.dtd"><svg t="1506933951040" class="icon" style="" viewBox="0 0 1024 1024" version="1.1" xmlns="http://www.w3.org/2000/svg" p-id="13117" xmlns:xlink="http://www.w3.org/1999/xlink" width="30" height="30"><defs><style type="text/css"></style></defs><path d="M834.701656 259.751952c-10.501168 0-19.987217 4.328585-26.78197 11.296277l-0.032746-0.031722-402.115334 402.558425L217.308281 484.347197l-0.060375 0.056282c-6.851035-7.694239-16.832364-12.547781-27.945469-12.547781-20.669762 0-37.422308 16.752546-37.422308 37.423331 0 11.059893 4.804423 20.99722 12.435217 27.848255l-0.044002 0.040932 214.906581 215.769228c0.048095 0.048095 0.092098 0.100284 0.144286 0.148379 6.783497 6.866385 16.205077 11.120268 26.617218 11.120268 10.425444 0 19.85521-4.26514 26.638707-11.140735l427.773713-428.66092c7.242961-6.823406 11.768021-16.497743 11.768021-27.230178C872.119871 276.504498 855.367325 259.751952 834.701656 259.751952L834.701656 259.751952zM834.701656 259.751952" p-id="13118" fill="#bfbfbf"></path></svg>